{
    "asset" : {
        "generator" : "Khronos glTF Blender I/O v3.4.50",
        "version" : "2.0"
    },
    "scene" : 0,
    "scenes" : [
        {
            "name" : "Scene",
            "nodes" : [
                1
            ]
        }
    ],
    "nodes" : [
        {
            "mesh" : 0,
            "name" : "chair",
            "translation" : [
                0,
                51.885528564453125,
                0
            ]
        },
        {
            "children" : [
                0
            ],
            "name" : "old_chair_grp"
        }
    ],
    "materials" : [
        {
            "doubleSided" : true,
            "name" : "old_chair.001",
            "normalTexture" : {
                "index" : 0
            },
            "occlusionTexture" : {
                "index" : 1
            },
            "pbrMetallicRoughness" : {
                "baseColorTexture" : {
                    "index" : 2
                },
                "metallicRoughnessTexture" : {
                    "index" : 1
                }
            }
        }
    ],
    "meshes" : [
        {
            "name" : "Mesh",
            "primitives" : [
                {
                    "attributes" : {
                        "COLOR_0" : 0,
                        "POSITION" : 1,
                        "TEXCOORD_0" : 2,
                        "NORMAL" : 3
                    },
                    "indices" : 4,
                    "material" : 0
                }
            ]
        }
    ],
    "textures" : [
        {
            "sampler" : 0,
            "source" : 0
        },
        {
            "sampler" : 0,
            "source" : 1
        },
        {
            "sampler" : 0,
            "source" : 2
        }
    ],
    "images" : [
        {
            "mimeType" : "image/png",
            "name" : "old_chair_Normal",
            "uri" : "old_chair_Normal.png"
        },
        {
            "mimeType" : "image/png",
            "name" : "old_chair_AO-old_chair_Roughness-old_chair_Metallic",
            "uri" : "old_chair_AO-old_chair_Roughness-old_chair_Metallic.png"
        },
        {
            "mimeType" : "image/png",
            "name" : "old_chair_bcolor",
            "uri" : "old_chair_bcolor.png"
        }
    ],
    "accessors" : [
        {
            "bufferView" : 0,
            "componentType" : 5123,
            "count" : 5316,
            "normalized" : true,
            "type" : "VEC4"
        },
        {
            "bufferView" : 1,
            "componentType" : 5126,
            "count" : 5316,
            "max" : [
                28.15625,
                51.885528564453125,
                28.203125
            ],
            "min" : [
                -28.15625,
                -51.885528564453125,
                -28.203125
            ],
            "type" : "VEC3"
        },
        {
            "bufferView" : 2,
            "componentType" : 5126,
            "count" : 5316,
            "type" : "VEC2"
        },
        {
            "bufferView" : 3,
            "componentType" : 5126,
            "count" : 5316,
            "type" : "VEC3"
        },
        {
            "bufferView" : 4,
            "componentType" : 5123,
            "count" : 5328,
            "type" : "SCALAR"
        }
    ],
    "bufferViews" : [
        {
            "buffer" : 0,
            "byteLength" : 42528,
            "byteOffset" : 0,
            "target" : 34962
        },
        {
            "buffer" : 0,
            "byteLength" : 63792,
            "byteOffset" : 42528,
            "target" : 34962
        },
        {
            "buffer" : 0,
            "byteLength" : 42528,
            "byteOffset" : 106320,
            "target" : 34962
        },
        {
            "buffer" : 0,
            "byteLength" : 63792,
            "byteOffset" : 148848,
            "target" : 34962
        },
        {
            "buffer" : 0,
            "byteLength" : 10656,
            "byteOffset" : 212640,
            "target" : 34963
        }
    ],
    "samplers" : [
        {
            "magFilter" : 9729,
            "minFilter" : 9987
        }
    ],
    "buffers" : [
        {
            "byteLength" : 223296,
            "uri" : "old_chair.bin"
        }
    ]
}
