{
  "asset": {
    "generator": "glTF-Transform v4.2.1",
    "version": "2.0"
  },
  "accessors": [
    {
      "type": "VEC3",
      "componentType": 5126,
      "count": 1262736,
      "max": [
        2.182800054550171,
        2.7994000911712646,
        5.126800060272217
      ],
      "min": [
        -2.8817999362945557,
        -2.4667999744415283,
        -5.607900142669678
      ],
      "bufferView": 0,
      "byteOffset": 0
    },
    {
      "type": "VEC3",
      "componentType": 5126,
      "count": 1262736,
      "bufferView": 0,
      "byteOffset": 12
    }
  ],
  "bufferViews": [
    {
      "buffer": 0,
      "byteOffset": 0,
      "byteLength": 30305664,
      "byteStride": 24,
      "target": 34962
    }
  ],
  "buffers": [
    {
      "uri": "buffer.bin",
      "byteLength": 30305664
    }
  ],
  "materials": [
    {
      "pbrMetallicRoughness": {
        "metallicFactor": 0
      }
    }
  ],
  "meshes": [
    {
      "primitives": [
        {
          "attributes": {
            "POSITION": 0,
            "NORMAL": 1
          },
          "mode": 4,
          "material": 0
        }
      ]
    }
  ],
  "nodes": [
    {
      "name": "empty_2",
      "children": [
        1
      ]
    },
    {
      "name": "empty_3",
      "mesh": 0
    }
  ],
  "scenes": [
    {
      "name": "empty_1",
      "nodes": [
        0
      ]
    }
  ],
  "scene": 0
}