{"scene":0,"scenes":[{"nodes":[0]}],"asset":{"version":"2.0","generator":"https://github.com/mikedh/trimesh"},"accessors":[{"componentType":5125,"type":"SCALAR","bufferView":0,"count":1262706,"max":[210452],"min":[0]},{"componentType":5126,"type":"VEC3","byteOffset":0,"bufferView":1,"count":210453,"max":[2.182800054550171,2.7994000911712646,5.126800060272217],"min":[-2.8817999362945557,-2.4667999744415283,-5.607900142669678]},{"componentType":5126,"count":210453,"type":"VEC3","byteOffset":0,"bufferView":2,"max":[0.9999973773956299,0.999984622001648,0.9999994039535522],"min":[-0.9999955296516418,-0.9999956488609314,-0.9999998211860657]}],"meshes":[{"name":"Screw.stl","extras":{"header":"File exported by Artec Group 3D Scanning Solutions, www.artec-group.com        \u0000","processed":true},"primitives":[{"attributes":{"POSITION":1,"NORMAL":2},"indices":0,"mode":4}]}],"nodes":[{"name":"world","children":[1]},{"name":"Screw.stl","mesh":0}],"buffers":[{"uri":"gltf_buffer_0.bin","byteLength":5050824},{"uri":"gltf_buffer_1.bin","byteLength":2525436},{"uri":"gltf_buffer_2.bin","byteLength":2525436}],"bufferViews":[{"buffer":0,"byteOffset":0,"byteLength":5050824},{"buffer":1,"byteOffset":0,"byteLength":2525436},{"buffer":2,"byteOffset":0,"byteLength":2525436}]}